<?xml version="1.0" standalone="no"?>
<!DOCTYPE svg PUBLIC "-//W3C//DTD SVG 20010904//EN"
 "http://www.w3.org/TR/2001/REC-SVG-20010904/DTD/svg10.dtd">
<svg version="1.0" xmlns="http://www.w3.org/2000/svg"
 width="512.000000pt" height="512.000000pt" viewBox="0 0 512.000000 512.000000"
 preserveAspectRatio="xMidYMid meet">
<metadata>
Created by potrace 1.14, written by Peter Selinger 2001-2017
</metadata>
<g transform="translate(0.000000,512.000000) scale(0.100000,-0.100000)"
fill="#000000" stroke="none">
<path d="M2332 5109 c-132 -12 -266 -36 -418 -74 -175 -45 -298 -91 -479 -180
-281 -138 -451 -260 -680 -490 -218 -218 -343 -388 -476 -647 -369 -725 -369
-1591 0 -2316 133 -259 258 -429 476 -647 229 -230 399 -352 680 -490 316
-156 600 -231 962 -257 267 -19 527 6 809 77 175 45 298 91 479 180 281 138
451 260 680 490 218 218 343 388 476 647 369 725 369 1591 0 2316 -133 259
-258 429 -476 647 -229 230 -399 352 -680 490 -181 89 -304 135 -479 180 -298
76 -583 100 -874 74z m250 -215 c93 -29 229 -95 211 -101 -6 -2 -53 0 -104 6
-51 6 -94 9 -96 7 -2 -1 32 -32 76 -69 43 -36 82 -63 85 -60 3 4 6 15 6 25 0
20 21 31 88 48 41 10 42 12 42 50 0 38 2 40 30 40 28 0 30 -2 30 -40 0 -22 3
-40 8 -40 4 0 74 20 156 44 l150 44 80 -29 c121 -44 368 -169 481 -244 570
-379 942 -957 1060 -1649 l6 -39 -40 6 c-40 5 -40 5 -55 -41 -24 -69 -20 -103
24 -193 56 -117 56 -160 -4 -226 l-45 -48 -33 40 c-18 22 -47 56 -65 75 l-32
35 -1 -97 c0 -54 -4 -98 -8 -98 -5 0 -14 62 -21 137 -19 210 -22 225 -38 218
-59 -22 -57 -24 -93 92 -18 59 -37 119 -42 133 -10 24 -15 20 -154 -125 l-143
-150 -1 -107 0 -107 -45 -31 c-32 -22 -46 -27 -49 -18 -3 7 -25 129 -50 272
-25 142 -47 261 -50 263 -3 3 -15 -2 -28 -11 -12 -9 -26 -16 -30 -16 -3 0 -34
38 -68 85 l-61 85 -104 0 -103 0 -36 41 c-35 38 -39 40 -80 34 l-43 -7 -74 86
c-41 47 -77 86 -80 86 -4 0 -11 -6 -17 -12 -7 -9 4 -47 38 -133 l48 -120 56
-3 56 -3 0 31 c0 26 4 30 28 30 20 0 30 -7 39 -27 7 -16 27 -36 44 -46 30 -17
31 -20 25 -64 -21 -155 -190 -324 -396 -394 l-72 -24 6 -34 c3 -19 11 -38 18
-43 17 -11 78 -10 114 1 16 5 41 12 57 15 27 6 27 6 21 -36 -18 -117 -97 -265
-256 -480 -46 -62 -93 -126 -105 -143 l-21 -30 24 -160 c35 -239 35 -237 -32
-298 -31 -29 -81 -74 -111 -102 l-54 -50 15 -70 c8 -38 14 -70 13 -71 -1 -1
-19 -9 -39 -17 -31 -13 -39 -23 -48 -59 -27 -103 -130 -215 -222 -243 -65 -19
-238 -21 -238 -2 -2 46 -35 187 -80 337 -67 223 -72 279 -35 390 23 69 27 94
23 159 -4 69 -11 90 -71 217 l-67 140 0 106 0 107 -52 3 c-48 3 -52 5 -63 36
-6 19 -19 38 -29 44 -29 16 -136 3 -186 -22 -47 -25 -182 -39 -235 -26 -57 14
-167 150 -240 295 l-26 53 3 207 3 207 39 78 c27 55 59 100 107 149 l69 70 0
66 0 67 63 62 c63 62 65 63 137 73 76 11 103 22 153 62 26 20 41 22 172 25
l144 3 3 -101 3 -102 128 -54 c71 -30 132 -54 137 -54 5 0 12 20 15 43 11 75
12 75 122 32 81 -32 114 -39 190 -43 139 -7 165 19 179 173 l7 78 -69 -7 c-38
-4 -89 -9 -114 -12 l-46 -5 -44 98 c-24 54 -47 102 -50 106 -6 7 -84 -9 -99
-19 -1 -2 4 -25 14 -53 18 -54 11 -82 -24 -100 -16 -9 -23 3 -67 113 -46 117
-51 125 -99 159 -27 19 -74 52 -102 73 -44 30 -55 34 -68 24 -13 -11 -3 -26
71 -106 l86 -94 -12 -65 c-7 -36 -20 -75 -30 -87 -17 -21 -18 -21 -44 -5 -35
23 -33 31 14 52 22 10 40 21 40 24 0 4 -51 59 -112 124 l-113 117 -68 -28
c-93 -38 -188 -132 -214 -210 -24 -73 -56 -97 -126 -96 -29 0 -73 7 -99 14
l-48 13 0 134 0 133 125 0 c69 0 125 3 124 8 0 4 -17 45 -38 92 -28 61 -43 84
-55 82 -11 -2 -16 4 -16 21 0 22 21 34 201 117 l200 94 -6 47 c-5 32 -2 56 7
73 l14 26 47 -30 c26 -16 50 -30 53 -30 6 0 -5 66 -17 96 -7 21 -9 21 -71 8
-98 -21 -94 -23 -108 53 -12 62 -12 68 6 81 125 89 351 240 394 262 76 40 183
41 302 4z m-2195 -3009 l218 -104 0 -90 0 -89 -51 -76 c-52 -75 -52 -75 -59
-177 -9 -119 -4 -121 -91 34 -91 161 -171 354 -222 535 -11 39 -19 72 -16 72
2 0 102 -47 221 -105z"/>
</g>
</svg>
