<?xml version="1.0" standalone="no"?>
<!DOCTYPE svg PUBLIC "-//W3C//DTD SVG 20010904//EN"
 "http://www.w3.org/TR/2001/REC-SVG-20010904/DTD/svg10.dtd">
<svg version="1.0" xmlns="http://www.w3.org/2000/svg"
 width="512.000000pt" height="512.000000pt" viewBox="0 0 512.000000 512.000000"
 preserveAspectRatio="xMidYMid meet">
<metadata>
Created by potrace 1.14, written by Peter Selinger 2001-2017
</metadata>
<g transform="translate(0.000000,512.000000) scale(0.100000,-0.100000)"
fill="#000000" stroke="none">
<path d="M2365 5114 c-363 -37 -636 -113 -930 -258 -279 -138 -479 -282 -692
-497 -211 -213 -343 -400 -479 -674 -126 -255 -203 -510 -246 -810 -17 -118
-17 -512 0 -630 43 -300 120 -555 246 -810 136 -274 268 -461 479 -674 407
-412 905 -658 1502 -743 118 -17 512 -17 630 0 300 43 555 120 810 246 279
138 479 282 692 497 211 213 343 400 479 674 126 255 203 510 246 810 17 118
17 512 0 630 -43 300 -120 555 -246 810 -136 274 -268 461 -479 674 -213 215
-413 359 -692 497 -248 122 -484 196 -765 239 -101 15 -468 28 -555 19z m195
-215 c74 -20 246 -96 237 -105 -2 -2 -48 0 -102 6 -53 6 -99 9 -101 7 -5 -4
149 -137 159 -137 2 0 7 13 10 29 5 25 13 30 66 45 53 15 61 20 61 41 0 36 10
55 31 55 15 0 19 -7 19 -40 0 -26 5 -40 13 -40 7 0 81 20 164 44 l152 43 128
-51 c749 -301 1311 -974 1462 -1751 12 -60 24 -121 27 -133 5 -23 3 -24 -35
-17 -38 6 -42 5 -52 -22 -6 -15 -13 -53 -16 -84 -5 -51 -2 -62 32 -123 27 -48
38 -82 42 -124 4 -56 3 -58 -38 -106 l-43 -49 -68 74 -67 74 -1 -99 c0 -55 -3
-96 -7 -92 -5 4 -15 84 -24 177 -10 94 -19 173 -22 176 -3 3 -20 1 -36 -5 -17
-6 -32 -8 -34 -4 -3 4 -21 59 -42 122 -21 63 -41 119 -45 123 -4 4 -71 -58
-149 -139 l-141 -147 0 -108 0 -108 -45 -31 -44 -31 -6 23 c-3 13 -25 134 -49
271 -24 136 -46 250 -49 253 -3 3 -17 -2 -31 -12 -15 -9 -29 -15 -31 -13 -2 3
-33 42 -67 89 l-64 84 -101 -3 -100 -3 -37 45 c-36 45 -37 45 -78 34 l-40 -10
-52 59 c-111 127 -103 121 -120 104 -13 -13 -10 -28 32 -135 l48 -120 57 -3
57 -3 0 31 c0 25 4 30 25 30 17 0 29 -9 40 -30 9 -17 27 -36 40 -42 13 -6 26
-17 29 -24 9 -25 -13 -114 -41 -166 -56 -103 -221 -225 -370 -273 -47 -15 -53
-21 -53 -44 0 -15 6 -35 13 -45 14 -19 44 -19 160 0 36 6 37 5 37 -22 0 -103
-83 -256 -292 -537 -77 -105 -88 -124 -83 -151 13 -71 45 -322 45 -347 0 -20
-13 -40 -47 -72 -27 -24 -77 -71 -112 -104 l-63 -59 12 -59 c7 -33 14 -64 17
-71 2 -6 -14 -17 -37 -24 -35 -11 -42 -19 -51 -54 -27 -101 -98 -189 -188
-233 -48 -24 -71 -28 -162 -31 l-105 -4 -12 78 c-7 44 -37 162 -68 264 -69
231 -75 288 -40 393 48 143 31 254 -62 417 -36 64 -37 67 -42 195 l-5 130 -57
3 c-54 3 -57 4 -63 33 -4 16 -16 34 -27 40 -32 17 -137 6 -193 -21 -42 -20
-66 -24 -146 -24 -90 -1 -98 1 -132 27 -44 33 -132 155 -182 251 l-35 68 0
182 c0 119 5 199 13 233 19 73 72 156 145 230 l62 63 0 66 0 66 61 63 c49 51
68 65 100 69 21 3 57 9 79 12 22 3 63 21 90 40 l50 34 144 0 145 0 3 -96 3
-97 124 -53 c69 -30 130 -54 137 -54 7 0 18 24 24 55 6 30 14 55 16 55 3 0 46
-16 97 -37 79 -31 106 -37 194 -41 102 -4 102 -4 131 25 32 32 52 101 52 180
l0 46 -82 -7 c-46 -4 -96 -9 -113 -12 -30 -5 -31 -4 -75 96 -24 56 -47 103
-52 106 -4 2 -28 -1 -53 -7 -41 -10 -46 -14 -40 -33 3 -12 9 -41 12 -65 5 -36
2 -47 -12 -58 -11 -7 -22 -13 -26 -13 -4 0 -28 53 -54 119 l-47 118 -94 67
c-110 78 -117 81 -132 63 -10 -12 5 -32 75 -106 l86 -93 -17 -73 c-19 -82 -34
-102 -64 -86 -36 19 -33 38 9 56 21 10 39 22 39 27 0 6 -51 61 -112 124 l-113
115 -66 -28 c-44 -19 -89 -49 -133 -89 -57 -53 -69 -70 -80 -115 -9 -32 -24
-62 -39 -75 -35 -30 -102 -38 -156 -19 -24 8 -52 15 -62 15 -18 0 -19 10 -19
135 l0 135 126 0 c145 0 137 -12 78 117 -25 55 -38 73 -49 69 -11 -4 -15 1
-15 17 0 20 26 35 205 117 161 74 204 97 199 110 -14 36 -15 79 -3 103 l14 26
49 -30 c26 -17 50 -28 53 -25 6 6 -18 116 -26 116 -3 0 -33 -7 -66 -15 -92
-22 -90 -23 -104 51 -7 37 -8 70 -4 74 7 6 170 118 312 214 107 72 142 86 221
86 46 0 105 -8 150 -21z m-1954 -3119 c2 0 4 -34 4 -75 0 -83 -7 -102 -71
-197 -37 -54 -39 -62 -45 -158 l-7 -102 -34 54 c-51 79 -155 290 -196 398 -38
99 -87 254 -87 276 0 8 89 -30 216 -91 119 -58 218 -105 220 -105z"/>
</g>
</svg>
